<?xml version="1.0" encoding="UTF-8" standalone="no"?><!DOCTYPE svg PUBLIC "-//W3C//DTD SVG 1.1//EN" "http://www.w3.org/Graphics/SVG/1.1/DTD/svg11.dtd"><svg width="100%" height="100%" viewBox="0 0 151 151" version="1.1" xmlns="http://www.w3.org/2000/svg" xmlns:xlink="http://www.w3.org/1999/xlink" xml:space="preserve" xmlns:serif="http://www.serif.com/" style="fill-rule:evenodd;clip-rule:evenodd;stroke-linejoin:round;stroke-miterlimit:2;"><g><path d="M150.175,57.954c-0.512,-1.571 -1.9,-2.691 -3.542,-2.866l-48.121,-4.884l-19.512,-44.246c-0.667,-1.5 -2.162,-2.483 -3.812,-2.483c-1.65,0 -3.146,0.975 -3.813,2.492l-19.517,44.241l-48.112,4.88c-1.642,0.166 -3.034,1.3 -3.542,2.866c-0.512,1.571 -0.046,3.296 1.188,4.396l36.05,32.242l-10.221,47.262c-0.346,1.613 0.287,3.279 1.625,4.25c0.729,0.529 1.587,0.796 2.45,0.796c0.721,0 1.446,-0.187 2.096,-0.571l41.8,-24.333l41.791,24.333c1.425,0.821 3.209,0.742 4.546,-0.246c1.334,-0.954 1.975,-2.637 1.629,-4.25l-10.221,-47.266l36.055,-32.238c1.225,-1.083 1.695,-2.808 1.183,-4.375Zm-44.608,32.038c-1.117,1 -1.613,2.521 -1.296,3.987l8.737,40.396l-35.725,-20.792c-1.295,-0.758 -2.895,-0.758 -4.191,0l-35.734,20.792l8.738,-40.396c0.317,-1.466 -0.179,-2.987 -1.296,-3.987l-30.817,-27.555l41.125,-4.175c1.492,-0.145 2.784,-1.1 3.392,-2.466l16.683,-37.821l16.68,37.821c0.608,1.366 1.899,2.321 3.391,2.466l41.125,4.175l-30.812,27.555Z" style="fill:#d4af37;fill-rule:nonzero;"/></g></svg>